HIERARCHY
ROOT Hips
{
    OFFSET 0.000000 0.000000 0.000000
    CHANNELS 6 Xposition Yposition Zposition Zrotation Xrotation Yrotation
    JOINT Spine
    {
        OFFSET -0.000000 8.267054 0.000000
        CHANNELS 3 Zrotation Xrotation Yrotation
        JOINT Spine1
        {
            OFFSET -0.000000 23.684998 0.000000
            CHANNELS 3 Zrotation Xrotation Yrotation
            JOINT Neck
            {
                OFFSET -0.000000 23.587730 2.144339
                CHANNELS 3 Zrotation Xrotation Yrotation
                JOINT Head
                {
                    OFFSET -0.000000 14.114483 -2.016355
                    CHANNELS 3 Zrotation Xrotation Yrotation
                    End Site
                    {
                        OFFSET -0.000000 25.204432 0.000000
                    }
                }
            }
            JOINT LeftShoulder
            {
                OFFSET 4.070090 22.062094 -0.247321
                CHANNELS 3 Zrotation Xrotation Yrotation
                JOINT LeftArm
                {
                    OFFSET 10.395479 0.000000 0.000000
                    CHANNELS 3 Zrotation Xrotation Yrotation
                    JOINT LeftForeArm
                    {
                        OFFSET 37.713577 0.000000 0.000000
                        CHANNELS 3 Zrotation Xrotation Yrotation
                        JOINT LeftHand
                        {
                            OFFSET 20.284107 0.000000 0.000000
                            CHANNELS 3 Zrotation Xrotation Yrotation
                            End Site
                            {
                                OFFSET 15.122660 0.000000 0.000000
                            }
                        }
                    }
                }
            }
            JOINT RightShoulder
            {
                OFFSET -3.979272 22.062094 -0.247321
                CHANNELS 3 Zrotation Xrotation Yrotation
                JOINT RightArm
                {
                    OFFSET -10.395479 0.000000 0.000000
                    CHANNELS 3 Zrotation Xrotation Yrotation
                    JOINT RightForeArm
                    {
                        OFFSET -37.713577 0.000000 0.000000
                        CHANNELS 3 Zrotation Xrotation Yrotation
                        JOINT RightHand
                        {
                            OFFSET -20.284107 0.000000 0.000000
                            CHANNELS 3 Zrotation Xrotation Yrotation
                            End Site
                            {
                                OFFSET -15.122660 0.000000 0.000000
                            }
                        }
                    }
                }
            }
        }
    }
    JOINT LeftUpLeg
    {
        OFFSET 10.081773 0.000000 0.000000
        CHANNELS 3 Zrotation Xrotation Yrotation
        JOINT LeftLeg
        {
            OFFSET -0.000000 -36.382099 0.000000
            CHANNELS 3 Zrotation Xrotation Yrotation
            JOINT LeftFoot
            {
                OFFSET -0.000000 -49.182560 0.000000
                CHANNELS 3 Zrotation Xrotation Yrotation
                JOINT LeftToeBase
                {
                    OFFSET -0.000000 -6.553152 15.122660
                    CHANNELS 3 Zrotation Xrotation Yrotation
                    End Site
                    {
                        OFFSET -0.000000 0.000000 4.032709
                    }
                }
            }
        }
    }
    JOINT RightUpLeg
    {
        OFFSET -10.081773 0.000000 0.000000
        CHANNELS 3 Zrotation Xrotation Yrotation
        JOINT RightLeg
        {
            OFFSET -0.000000 -36.382099 0.000000
            CHANNELS 3 Zrotation Xrotation Yrotation
            JOINT RightFoot
            {
                OFFSET -0.000000 -49.182560 0.000000
                CHANNELS 3 Zrotation Xrotation Yrotation
                JOINT RightToeBase
                {
                    OFFSET -0.000000 -6.553152 15.122660
                    CHANNELS 3 Zrotation Xrotation Yrotation
                    End Site
                    {
                        OFFSET -0.000000 0.000000 4.032709
                    }
                }
            }
        }
    }
}
MOTION
Frames:    13
Frame Time:    0.008333
-33.419689    92.582367    6.173654    -0.741542    0.217876    -175.907928    -2.587614    -7.821026    -0.364844    1.005203    -0.879514    -0.180178    -1.924695    21.953253    -13.342232    11.945571    8.872109    -13.251129    16.769007    -2.911567    -9.082300    -23.687740    3.924386    -2.587938    0.413861    -0.607321    6.581744    -6.364953    -0.662100    0.557624    -13.042415    -1.718899    -0.923215    26.566744    5.714954    5.210660    -0.781399    -0.412808    0.013579    4.761930    -0.389441    0.563194    -3.062021    -5.161151    0.174133    2.054233    15.561001    0.888670    1.776935    -9.474713    -3.452742    0.000000    0.000000    0.000000    -0.215362    -2.442513    -0.249518    1.329571    12.935593    -1.802412    -0.977856    -8.827733    -8.825811    0.000000    0.000000    0.000000    
-33.422916    92.581261    6.163028    -0.742912    0.217895    -175.899231    -2.586459    -7.821427    -0.366329    0.994965    -0.872809    -0.181863    -1.946574    21.901468    -13.326393    11.979428    8.975236    -13.243618    16.779806    -2.917364    -9.093097    -23.709929    3.941289    -2.576194    0.424717    -0.602644    6.562244    -6.379158    -0.659729    0.587639    -13.032460    -1.718543    -0.921967    26.571815    5.728598    5.214784    -0.798752    -0.412075    0.010254    4.767781    -0.388512    0.567502    -3.064239    -5.157798    0.169861    2.052771    15.566366    0.885167    1.778270    -9.481438    -3.452244    0.000000    0.000000    0.000000    -0.215989    -2.445475    -0.267261    1.323400    12.954270    -1.789296    -0.984820    -8.834409    -8.828715    0.000000    0.000000    0.000000    
-33.426052    92.580170    6.152621    -0.744266    0.217915    -175.890686    -2.585369    -7.821651    -0.367544    0.984882    -0.866419    -0.183698    -1.966252    21.854239    -13.312103    12.010146    9.069620    -13.237017    16.789610    -2.922210    -9.103097    -23.730476    3.957476    -2.565772    0.435134    -0.597959    6.544102    -6.394330    -0.657224    0.614877    -13.022820    -1.718009    -0.920833    26.577213    5.742141    5.218819    -0.816367    -0.411816    0.006928    4.774452    -0.388057    0.571887    -3.066496    -5.154504    0.165984    2.051551    15.571515    0.881350    1.779449    -9.487805    -3.451798    0.000000    0.000000    0.000000    -0.216706    -2.448514    -0.283644    1.317784    12.972803    -1.777447    -0.991738    -8.841187    -8.831724    0.000000    0.000000    0.000000    
-33.429100    92.579079    6.142248    -0.745537    0.217885    -175.882095    -2.584455    -7.821588    -0.369014    0.975110    -0.860301    -0.185114    -1.983342    21.812860    -13.299943    12.037041    9.152742    -13.231660    16.797642    -2.925845    -9.112115    -23.748825    3.973120    -2.557119    0.444824    -0.592980    6.527570    -6.411064    -0.654060    0.638414    -13.013589    -1.717134    -0.920108    26.583324    5.756110    5.222959    -0.834801    -0.412386    0.003554    4.782675    -0.388420    0.576580    -3.068655    -5.151257    0.162317    2.050473    15.576649    0.877151    1.780891    -9.494384    -3.451382    0.000000    0.000000    0.000000    -0.217170    -2.452042    -0.299475    1.312103    12.991954    -1.766652    -0.998217    -8.847968    -8.834308    0.000000    0.000000    0.000000    
-33.432056    92.578003    6.131886    -0.746744    0.217802    -175.873459    -2.583773    -7.821220    -0.370226    0.965598    -0.854376    -0.186624    -1.997319    21.777697    -13.290092    12.059483    9.223642    -13.227657    16.803854    -2.928009    -9.119987    -23.764914    3.987396    -2.550558    0.454086    -0.587734    6.512790    -6.429648    -0.650605    0.657532    -13.004700    -1.715979    -0.919738    26.590349    5.770731    5.226930    -0.854546    -0.414374    0.000311    4.793172    -0.390012    0.581534    -3.070741    -5.147998    0.158673    2.049478    15.581673    0.872704    1.782142    -9.500857    -3.450847    0.000000    0.000000    0.000000    -0.217535    -2.456151    -0.313916    1.306834    13.011904    -1.757740    -1.004256    -8.854759    -8.836711    0.000000    0.000000    0.000000    
-33.434849    92.576942    6.121727    -0.747889    0.217618    -175.864899    -2.583546    -7.820534    -0.371456    0.956775    -0.848784    -0.187891    -2.008026    21.749121    -13.282708    12.077279    9.281345    -13.225051    16.808083    -2.928998    -9.126712    -23.778633    3.999866    -2.545863    0.462539    -0.583785    6.499493    -6.448411    -0.648002    0.672199    -12.996428    -1.714356    -0.919848    26.598000    5.785513    5.230706    -0.874745    -0.417645    -0.002594    4.805986    -0.393098    0.586480    -3.072896    -5.144787    0.155845    2.049057    15.586302    0.867655    1.783346    -9.507092    -3.450624    0.000000    0.000000    0.000000    -0.217861    -2.460915    -0.326602    1.302184    13.032490    -1.750948    -1.010094    -8.861604    -8.838907    0.000000    0.000000    0.000000    
-33.437458    92.575905    6.111744    -0.748960    0.217344    -175.856445    -2.583934    -7.819562    -0.372464    0.948991    -0.843373    -0.189188    -2.016184    21.725948    -13.277449    12.091184    9.327746    -13.223689    16.810360    -2.928674    -9.132244    -23.790281    4.009693    -2.543052    0.470671    -0.581772    6.487070    -6.467222    -0.647127    0.683093    -12.989233    -1.712194    -0.920534    26.606218    5.799822    5.234448    -0.894287    -0.421935    -0.005238    4.820171    -0.397183    0.591265    -3.074913    -5.141526    0.152754    2.048587    15.590567    0.862845    1.784720    -9.513441    -3.450272    0.000000    0.000000    0.000000    -0.218148    -2.466360    -0.337413    1.298239    13.053867    -1.746099    -1.015682    -8.868634    -8.841269    0.000000    0.000000    0.000000    
-33.439869    92.574867    6.101932    -0.749953    0.217000    -175.848083    -2.585112    -7.818327    -0.373763    0.942452    -0.837988    -0.190072    -2.022284    21.706985    -13.274020    12.102057    9.364771    -13.223395    16.810667    -2.927588    -9.136738    -23.799976    4.016583    -2.541578    0.478485    -0.582103    6.474960    -6.485608    -0.648430    0.690897    -12.982935    -1.709725    -0.921850    26.614281    5.813321    5.238185    -0.911398    -0.426985    -0.007646    4.834299    -0.402086    0.595726    -3.076832    -5.138135    0.149895    2.048306    15.594295    0.857915    1.786113    -9.519820    -3.449984    0.000000    0.000000    0.000000    -0.218359    -2.472506    -0.346766    1.294854    13.076126    -1.742600    -1.021150    -8.875696    -8.843959    0.000000    0.000000    0.000000    
-33.442146    92.573822    6.092046    -0.750931    0.216594    -175.839600    -2.587338    -7.816805    -0.374873    0.937430    -0.832439    -0.191217    -2.027028    21.691076    -13.272174    12.110647    9.394485    -13.224115    16.809147    -2.925675    -9.140324    -23.808462    4.020499    -2.541182    0.486274    -0.584829    6.462504    -6.504604    -0.651918    0.696140    -12.977651    -1.706731    -0.923915    26.621958    5.825572    5.242429    -0.925557    -0.432654    -0.010166    4.847308    -0.407374    0.599942    -3.078839    -5.134441    0.147655    2.048511    15.597464    0.852471    1.787260    -9.526195    -3.449904    0.000000    0.000000    0.000000    -0.218671    -2.479445    -0.354678    1.292254    13.099727    -1.740027    -1.027003    -8.882977    -8.847664    0.000000    0.000000    0.000000    
-33.444221    92.572762    6.082358    -0.751945    0.216130    -175.831192    -2.590616    -7.815041    -0.376043    0.933867    -0.826845    -0.192418    -2.030426    21.678526    -13.272018    12.117373    9.416509    -13.225869    16.805792    -2.923434    -9.143099    -23.815449    4.021810    -2.541336    0.493933    -0.589630    6.449838    -6.524383    -0.657360    0.698895    -12.973018    -1.703410    -0.926676    26.628569    5.835876    5.247198    -0.935552    -0.437909    -0.013180    4.857384    -0.412526    0.604112    -3.080717    -5.130506    0.145064    2.048437    15.599874    0.847611    1.788570    -9.532466    -3.449795    0.000000    0.000000    0.000000    -0.218953    -2.487050    -0.362235    1.289841    13.124156    -1.737625    -1.032720    -8.890347    -8.851741    0.000000    0.000000    0.000000    
-33.446114    92.571678    6.072694    -0.752943    0.215649    -175.822632    -2.594967    -7.812970    -0.377518    0.931784    -0.821019    -0.193632    -2.032782    21.668768    -13.273649    12.122475    9.431690    -13.228841    16.800674    -2.921224    -9.145247    -23.821293    4.021200    -2.541636    0.501563    -0.595959    6.436817    -6.546737    -0.664240    0.699481    -12.969132    -1.699829    -0.930158    26.634331    5.844308    5.252697    -0.941387    -0.442984    -0.017043    4.863929    -0.417336    0.608590    -3.082574    -5.126225    0.142953    2.048678    15.601655    0.842394    1.789683    -9.538903    -3.449832    0.000000    0.000000    0.000000    -0.218987    -2.495337    -0.370770    1.287056    13.149733    -1.734776    -1.038216    -8.897726    -8.855612    0.000000    0.000000    0.000000    
-33.447769    92.570587    6.063373    -0.753915    0.215208    -175.814102    -2.600194    -7.810589    -0.379039    0.930961    -0.815277    -0.195141    -2.033984    21.661922    -13.277090    12.126124    9.440216    -13.233068    16.794321    -2.919292    -9.146869    -23.826023    4.019657    -2.541859    0.509024    -0.603703    6.423953    -6.571183    -0.672364    0.698308    -12.965874    -1.696219    -0.934092    26.639051    5.850731    5.258594    -0.942931    -0.447229    -0.021889    4.865817    -0.421439    0.613649    -3.084200    -5.121756    0.140714    2.048705    15.602834    0.837597    1.790866    -9.545362    -3.449894    0.000000    0.000000    0.000000    -0.218433    -2.503973    -0.382425    1.282751    13.175619    -1.730300    -1.042983    -8.905166    -8.857715    0.000000    0.000000    0.000000    
-33.449238    92.569473    6.054017    -0.754845    0.214831    -175.805145    -2.606251    -7.807752    -0.381081    0.930931    -0.809437    -0.196682    -2.034613    21.656694    -13.282150    12.129705    9.444683    -13.238601    16.786909    -2.917928    -9.148311    -23.830139    4.017942    -2.541682    0.516378    -0.612574    6.411112    -6.598709    -0.681587    0.695479    -12.962848    -1.692362    -0.938675    26.643013    5.855084    5.265248    -0.940254    -0.450771    -0.028235    4.862702    -0.424706    0.619981    -3.085655    -5.116940    0.138677    2.048787    15.603569    0.832758    1.791801    -9.551950    -3.450270    0.000000    0.000000    0.000000    -0.217209    -2.513169    -0.398141    1.276705    13.202568    -1.723647    -1.047258    -8.912490    -8.858202    0.000000    0.000000    0.000000    
